<mxfile host="65bd71144e">
    <diagram id="KLziRT28e3Jopb7g1y0X" name="Page-1">
        <mxGraphModel dx="1216" dy="1879" grid="1" gridSize="10" guides="1" tooltips="1" connect="1" arrows="1" fold="1" page="1" pageScale="1" pageWidth="850" pageHeight="1100" math="0" shadow="0">
            <root>
                <mxCell id="0"/>
                <mxCell id="1" parent="0"/>
                <mxCell id="3" value="" style="rounded=0;whiteSpace=wrap;html=1;fillColor=#a20025;fontColor=#ffffff;strokeColor=#6F0000;" parent="1" vertex="1">
                    <mxGeometry x="170" y="-90" width="520" height="150" as="geometry"/>
                </mxCell>
                <mxCell id="4" value="Logo" style="ellipse;whiteSpace=wrap;html=1;aspect=fixed;" parent="1" vertex="1">
                    <mxGeometry x="385" y="-20" width="60" height="60" as="geometry"/>
                </mxCell>
                <mxCell id="7" value="&lt;ul&gt;&lt;li&gt;Value 1&lt;/li&gt;&lt;li&gt;Value 2&lt;/li&gt;&lt;li&gt;Value 3&lt;/li&gt;&lt;/ul&gt;" style="text;strokeColor=#2D7600;fillColor=#60a917;html=1;whiteSpace=wrap;verticalAlign=middle;overflow=hidden;fontColor=#ffffff;" parent="1" vertex="1">
                    <mxGeometry x="375" y="50" width="100" height="80" as="geometry"/>
                </mxCell>
                <mxCell id="8" value="Noticia navideÃ±a" style="rounded=0;whiteSpace=wrap;html=1;" parent="1" vertex="1">
                    <mxGeometry x="235" y="140" width="380" height="220" as="geometry"/>
                </mxCell>
                <mxCell id="9" value="maps" style="whiteSpace=wrap;html=1;aspect=fixed;" parent="1" vertex="1">
                    <mxGeometry x="375" y="380" width="80" height="80" as="geometry"/>
                </mxCell>
                <mxCell id="11" value="calendario" style="whiteSpace=wrap;html=1;aspect=fixed;" parent="1" vertex="1">
                    <mxGeometry x="375" y="480" width="80" height="80" as="geometry"/>
                </mxCell>
                <mxCell id="12" value="fotos" style="whiteSpace=wrap;html=1;aspect=fixed;" parent="1" vertex="1">
                    <mxGeometry x="375" y="590" width="80" height="80" as="geometry"/>
                </mxCell>
                <mxCell id="13" value="" style="rounded=0;whiteSpace=wrap;html=1;fillColor=#a20025;fontColor=#ffffff;strokeColor=#6F0000;" parent="1" vertex="1">
                    <mxGeometry x="175" y="710" width="520" height="60" as="geometry"/>
                </mxCell>
                <mxCell id="15" value="copyrigth" style="text;strokeColor=none;fillColor=none;html=1;fontSize=24;fontStyle=1;verticalAlign=middle;align=center;" parent="1" vertex="1">
                    <mxGeometry x="385" y="720" width="100" height="40" as="geometry"/>
                </mxCell>
                <mxCell id="16" value="rrss" style="text;strokeColor=none;fillColor=none;html=1;fontSize=24;fontStyle=1;verticalAlign=middle;align=center;" parent="1" vertex="1">
                    <mxGeometry x="570" y="720" width="100" height="40" as="geometry"/>
                </mxCell>
                <mxCell id="18" value="titulo" style="text;html=1;strokeColor=none;fillColor=none;align=center;verticalAlign=middle;whiteSpace=wrap;rounded=0;" vertex="1" parent="1">
                    <mxGeometry x="385" y="-80" width="60" height="30" as="geometry"/>
                </mxCell>
                <mxCell id="19" value="texto&lt;br&gt;" style="text;html=1;strokeColor=none;fillColor=none;align=center;verticalAlign=middle;whiteSpace=wrap;rounded=0;" vertex="1" parent="1">
                    <mxGeometry x="385" y="-50" width="60" height="30" as="geometry"/>
                </mxCell>
            </root>
        </mxGraphModel>
    </diagram>
</mxfile>